<svg width="84" height="84" viewBox="0 0 84 84" fill="none" xmlns="http://www.w3.org/2000/svg">
<path opacity="0.16" d="M42 73.5C48.2301 73.5 54.3203 71.6526 59.5005 68.1913C64.6806 64.73 68.7181 59.8104 71.1022 54.0545C73.4864 48.2987 74.1102 41.9651 72.8947 35.8547C71.6793 29.7443 68.6792 24.1315 64.2739 19.7261C59.8685 15.3208 54.2557 12.3207 48.1453 11.1053C42.0349 9.88984 35.7013 10.5136 29.9455 12.8978C24.1896 15.282 19.27 19.3194 15.8087 24.4996C12.3474 29.6797 10.5 35.7699 10.5 42C10.5 47.208 11.76 52.115 14 56.4445L10.5 73.5L27.5555 70C31.8815 72.2365 36.7955 73.5 42 73.5Z" fill="black"/>
<path d="M35 35L49 49M35 49L49 35M42 73.5C48.2301 73.5 54.3203 71.6526 59.5005 68.1913C64.6806 64.73 68.7181 59.8104 71.1022 54.0545C73.4864 48.2987 74.1102 41.9651 72.8947 35.8547C71.6793 29.7443 68.6792 24.1315 64.2739 19.7261C59.8685 15.3208 54.2557 12.3207 48.1453 11.1053C42.0349 9.88984 35.7013 10.5136 29.9455 12.8978C24.1896 15.282 19.27 19.3194 15.8087 24.4996C12.3474 29.6797 10.5 35.7699 10.5 42C10.5 47.208 11.76 52.115 14 56.4445L10.5 73.5L27.5555 70C31.8815 72.2365 36.7955 73.5 42 73.5Z" stroke="#6E08EE" stroke-width="2" stroke-linecap="round" stroke-linejoin="round"/>
</svg>
